# This file uses centimeters as units for non-parametric coordinates.

g default
v 1.485537 -0.277413 2.714136
v -1.485537 0.277413 2.714136
v 1.485537 -0.277413 -2.714136
v -1.485537 0.277413 -2.714136
v 0.277413 1.485536 2.714136
v -0.277414 -1.485536 2.714136
v 0.277413 1.485536 -2.714136
v -0.277414 -1.485536 -2.714136
v -0.918900 1.199750 2.714136
v 0.918899 -1.199750 2.714136
v -0.918900 1.199750 -2.714136
v 0.918899 -1.199750 -2.714136
v -1.199750 -0.918900 2.714136
v 1.199750 0.918899 2.714136
v -1.199750 -0.918900 -2.714136
v 1.199750 0.918899 -2.714136
vt 0.011309 0.996757
vt 0.011309 0.000925
vt 0.973955 0.000924
vt 0.973955 0.996756
vt 0.011309 0.996757
vt 0.011309 0.000925
vt 0.973955 0.000924
vt 0.973955 0.996756
vt 0.011309 0.996757
vt 0.011309 0.000925
vt 0.973955 0.000924
vt 0.973955 0.996756
vt 0.011309 0.996757
vt 0.011309 0.000925
vt 0.973955 0.000924
vt 0.973955 0.996756
vn -0.183570 -0.983007 0.000000
vn -0.183570 -0.983007 0.000000
vn -0.183570 -0.983007 0.000000
vn -0.183570 -0.983007 0.000000
vn 0.983007 -0.183570 0.000000
vn 0.983007 -0.183570 0.000000
vn 0.983007 -0.183570 0.000000
vn 0.983007 -0.183570 0.000000
vn 0.793896 0.608053 0.000000
vn 0.793896 0.608053 0.000000
vn 0.793896 0.608053 0.000000
vn 0.793896 0.608053 0.000000
vn -0.608053 0.793896 0.000000
vn -0.608053 0.793896 0.000000
vn -0.608053 0.793896 0.000000
vn -0.608053 0.793896 0.000000
s off
g weapon_bazooka_glow:polySurface12
f 1/1/1 2/2/2 4/3/3 3/4/4
f 5/5/5 6/6/6 8/7/7 7/8/8
f 9/9/9 10/10/10 12/11/11 11/12/12
f 13/13/13 14/14/14 16/15/15 15/16/16
