# 3ds Max Wavefront OBJ Exporter v0.97b - (c)2007 guruware
# File Created: 11.06.2012 19:23:37

mtllib fx_weapon_bullet.mtl

#
# object polySurface2_weapon_bazooka_bullet1_polySurface9
#

v  -2.6575 3.7690 8.8173
v  -2.6575 3.7690 9.0195
v  -2.5554 3.5686 9.0195
v  -2.5554 3.5686 8.8173
v  -2.8165 3.9280 8.8173
v  -2.8165 3.9280 9.0195
v  -3.0168 4.0301 8.8173
v  -3.0168 4.0301 9.0195
v  -3.2389 4.0652 8.8173
v  -3.2389 4.0652 9.0195
v  -3.4610 4.0301 8.8173
v  -3.4610 4.0301 9.0195
v  -3.6614 3.9280 8.8173
v  -3.6614 3.9280 9.0195
v  -3.8204 3.7690 8.8173
v  -3.8204 3.7690 9.0195
v  -3.9225 3.5686 8.8173
v  -3.9225 3.5686 9.0195
v  -3.9577 3.3465 8.8173
v  -3.9577 3.3465 9.0195
v  -3.9225 3.1244 8.8173
v  -3.9225 3.1244 9.0195
v  -3.8204 2.9240 8.8173
v  -3.8204 2.9240 9.0195
v  -3.6614 2.7650 8.8173
v  -3.6614 2.7650 9.0195
v  -3.4610 2.6629 8.8173
v  -3.4610 2.6629 9.0195
v  -3.2389 2.6278 8.8173
v  -3.2389 2.6278 9.0195
v  -3.0168 2.6629 8.8173
v  -3.0168 2.6629 9.0195
v  -2.8165 2.7650 8.8173
v  -2.8165 2.7650 9.0195
v  -2.6575 2.9240 8.8173
v  -2.6575 2.9240 9.0195
v  -2.5554 3.1244 8.8173
v  -2.5554 3.1244 9.0195
v  -2.5202 3.3465 8.8173
v  -2.5202 3.3465 9.0195
v  -2.5717 3.3465 8.8173
v  -2.6044 3.1403 8.8173
v  -2.6992 2.9543 8.8173
v  -2.8468 2.8067 8.8173
v  -3.0328 2.7120 8.8173
v  -3.2389 2.6793 8.8173
v  -3.4451 2.7120 8.8173
v  -3.6311 2.8067 8.8173
v  -3.7787 2.9543 8.8173
v  -3.8735 3.1403 8.8173
v  -3.9061 3.3465 8.8173
v  -3.8735 3.5527 8.8173
v  -3.7787 3.7387 8.8173
v  -3.6311 3.8863 8.8173
v  -3.4451 3.9810 8.8173
v  -3.2389 4.0137 8.8173
v  -3.0328 3.9810 8.8173
v  -2.8468 3.8863 8.8173
v  -2.6992 3.7387 8.8173
v  -2.6044 3.5527 8.8173
v  -2.6394 3.5413 11.3011
v  -2.6044 3.5527 11.1001
v  -2.6992 3.7387 11.1001
v  -2.7289 3.7170 11.3011
v  -2.6085 3.3465 11.3011
v  -2.5717 3.3465 11.1001
v  -2.8468 3.8863 11.1001
v  -2.8684 3.8565 11.3011
v  -3.0328 3.9810 11.1001
v  -3.0441 3.9460 11.3011
v  -3.2389 4.0137 11.1001
v  -3.2389 3.9769 11.3011
v  -3.4451 3.9810 11.1001
v  -3.4337 3.9460 11.3011
v  -3.6311 3.8863 11.1001
v  -3.6095 3.8565 11.3011
v  -3.7787 3.7387 11.1001
v  -3.7489 3.7170 11.3011
v  -3.8735 3.5527 11.1001
v  -3.8385 3.5413 11.3011
v  -3.9061 3.3465 11.1001
v  -3.8693 3.3465 11.3011
v  -3.8735 3.1403 11.1001
v  -3.8385 3.1517 11.3011
v  -3.7787 2.9543 11.1001
v  -3.7489 2.9760 11.3011
v  -3.6311 2.8067 11.1001
v  -3.6095 2.8365 11.3011
v  -3.4451 2.7120 11.1001
v  -3.4337 2.7470 11.3011
v  -3.2389 2.6793 11.1001
v  -3.2389 2.7161 11.3011
v  -3.0328 2.7120 11.1001
v  -3.0441 2.7470 11.3011
v  -2.8468 2.8067 11.1001
v  -2.8684 2.8365 11.3011
v  -2.6992 2.9543 11.1001
v  -2.7289 2.9760 11.3011
v  -2.6044 3.1403 11.1001
v  -2.6394 3.1517 11.3011
v  -2.6044 3.5527 9.0195
v  -2.5717 3.3465 9.0195
v  -2.6044 3.1403 9.0195
v  -2.6992 2.9543 9.0195
v  -2.8468 2.8067 9.0195
v  -3.0328 2.7120 9.0195
v  -3.2389 2.6793 9.0195
v  -3.4451 2.7120 9.0195
v  -3.6311 2.8067 9.0195
v  -3.7787 2.9543 9.0195
v  -3.8735 3.1403 9.0195
v  -3.9061 3.3465 9.0195
v  -3.8735 3.5527 9.0195
v  -3.7787 3.7387 9.0195
v  -3.6311 3.8863 9.0195
v  -3.4451 3.9810 9.0195
v  -3.2389 4.0137 9.0195
v  -3.0328 3.9810 9.0195
v  -2.8468 3.8863 9.0195
v  -2.6992 3.7387 9.0195
v  -3.1453 3.6347 11.4351
v  -3.2389 3.6495 11.4351
v  -3.3326 3.6347 11.4351
v  -3.4170 3.5916 11.4351
v  -3.4841 3.5246 11.4351
v  -3.5271 3.4401 11.4351
v  -3.5419 3.3465 11.4351
v  -3.5271 3.2529 11.4351
v  -3.4841 3.1684 11.4351
v  -3.4170 3.1014 11.4351
v  -3.3326 3.0583 11.4351
v  -3.2389 3.0435 11.4351
v  -3.1453 3.0583 11.4351
v  -3.0608 3.1014 11.4351
v  -2.9938 3.1684 11.4351
v  -2.9508 3.2529 11.4351
v  -2.9359 3.3465 11.4351
v  -2.9508 3.4401 11.4351
v  -2.9938 3.5246 11.4351
v  -3.0608 3.5916 11.4351
# 140 vertices

vn 0.8090 0.5878 -0.0000
vn 0.9511 0.3090 -0.0000
vn 0.5878 0.8090 -0.0000
vn 0.3090 0.9511 -0.0000
vn 0.0000 1.0000 -0.0000
vn -0.3090 0.9511 -0.0000
vn -0.5878 0.8090 -0.0000
vn -0.8090 0.5878 -0.0000
vn -0.9511 0.3090 -0.0000
vn -1.0000 0.0000 -0.0000
vn -0.9511 -0.3090 -0.0000
vn -0.8090 -0.5878 -0.0000
vn -0.5878 -0.8090 -0.0000
vn -0.3090 -0.9511 -0.0000
vn 0.0000 -1.0000 -0.0000
vn 0.3090 -0.9511 -0.0000
vn 0.5878 -0.8090 -0.0000
vn 0.8090 -0.5878 -0.0000
vn 0.9511 -0.3090 -0.0000
vn 1.0000 0.0000 -0.0000
vn -0.0000 0.0000 -1.0000
vn -0.0000 -0.0000 -1.0000
vn 0.8881 0.4525 0.0811
vn 0.9003 0.2925 0.3224
vn 0.7658 0.5564 0.3224
vn 0.9844 0.1559 0.0811
vn 0.9466 -0.0000 0.3224
vn 0.7048 0.7048 0.0811
vn 0.5564 0.7658 0.3224
vn 0.4525 0.8881 0.0811
vn 0.2925 0.9003 0.3224
vn 0.1559 0.9844 0.0811
vn 0.0000 0.9466 0.3224
vn -0.1559 0.9844 0.0811
vn -0.2925 0.9003 0.3224
vn -0.4525 0.8881 0.0811
vn -0.5564 0.7658 0.3224
vn -0.7048 0.7048 0.0811
vn -0.7658 0.5564 0.3224
vn -0.8881 0.4525 0.0811
vn -0.9003 0.2925 0.3224
vn -0.9844 0.1559 0.0811
vn -0.9466 -0.0000 0.3224
vn -0.9844 -0.1559 0.0811
vn -0.9003 -0.2925 0.3224
vn -0.8881 -0.4525 0.0811
vn -0.7658 -0.5564 0.3224
vn -0.7048 -0.7048 0.0811
vn -0.5564 -0.7658 0.3224
vn -0.4525 -0.8881 0.0811
vn -0.2925 -0.9003 0.3224
vn -0.1559 -0.9844 0.0811
vn 0.0000 -0.9466 0.3224
vn 0.1559 -0.9844 0.0811
vn 0.2925 -0.9003 0.3224
vn 0.4525 -0.8881 0.0811
vn 0.5564 -0.7658 0.3224
vn 0.7048 -0.7048 0.0811
vn 0.7658 -0.5564 0.3224
vn 0.8881 -0.4525 0.0811
vn 0.9003 -0.2925 0.3224
vn 0.9844 -0.1559 0.0811
vn 0.0000 -0.0000 -1.0000
vn 0.0000 0.0000 -1.0000
vn 0.0000 0.0000 1.0000
vn 0.0000 -0.0000 1.0000
vn 0.5447 0.3957 0.7394
vn 0.3957 0.5447 0.7394
vn 0.6403 0.2080 0.7394
vn 0.2080 0.6403 0.7394
vn 0.0000 0.6733 0.7394
vn -0.2080 0.6403 0.7394
vn -0.3957 0.5447 0.7394
vn -0.5447 0.3957 0.7394
vn -0.6403 0.2080 0.7394
vn -0.6733 -0.0000 0.7394
vn -0.6403 -0.2080 0.7394
vn -0.5447 -0.3957 0.7394
vn -0.3957 -0.5447 0.7394
vn -0.2080 -0.6403 0.7394
vn 0.0000 -0.6733 0.7394
vn 0.2080 -0.6403 0.7394
vn 0.3957 -0.5447 0.7394
vn 0.5447 -0.3957 0.7394
vn 0.6403 -0.2080 0.7394
vn 0.6733 -0.0000 0.7394
# 86 vertex normals

vt 0.5699 0.4482 0.0000
vt 0.5981 0.4482 0.0000
vt 0.5981 0.5037 0.0000
vt 0.5699 0.5037 0.0000
vt 0.5699 0.4041 0.0000
vt 0.5981 0.4041 0.0000
vt 0.5553 0.7626 0.0000
vt 0.5270 0.7626 0.0000
vt 0.5270 0.7071 0.0000
vt 0.5553 0.7071 0.0000
vt 0.5553 0.8242 0.0000
vt 0.5270 0.8242 0.0000
vt 0.5553 0.8857 0.0000
vt 0.5270 0.8857 0.0000
vt 0.5553 0.9412 0.0000
vt 0.5270 0.9412 0.0000
vt 0.5553 0.9853 0.0000
vt 0.5270 0.9853 0.0000
vt 0.4909 0.9298 0.0000
vt 0.5191 0.9298 0.0000
vt 0.5191 0.9853 0.0000
vt 0.4909 0.9853 0.0000
vt 0.4909 0.8682 0.0000
vt 0.5191 0.8682 0.0000
vt 0.4909 0.8067 0.0000
vt 0.5191 0.8067 0.0000
vt 0.4909 0.7512 0.0000
vt 0.5191 0.7512 0.0000
vt 0.4909 0.7071 0.0000
vt 0.5191 0.7071 0.0000
vt 0.5631 0.9088 0.0000
vt 0.5914 0.9088 0.0000
vt 0.5914 0.9643 0.0000
vt 0.5631 0.9643 0.0000
vt 0.5631 0.8473 0.0000
vt 0.5914 0.8473 0.0000
vt 0.5631 0.7857 0.0000
vt 0.5914 0.7857 0.0000
vt 0.5631 0.7302 0.0000
vt 0.5914 0.7302 0.0000
vt 0.5699 0.6823 0.0000
vt 0.5981 0.6823 0.0000
vt 0.5981 0.7263 0.0000
vt 0.5699 0.7263 0.0000
vt 0.5699 0.6268 0.0000
vt 0.5981 0.6268 0.0000
vt 0.5699 0.5652 0.0000
vt 0.5981 0.5652 0.0000
vt 0.3859 0.2011 0.0000
vt 0.3769 0.2582 0.0000
vt 0.3506 0.3098 0.0000
vt 0.3097 0.3507 0.0000
vt 0.2582 0.3769 0.0000
vt 0.2011 0.3860 0.0000
vt 0.1440 0.3769 0.0000
vt 0.0924 0.3507 0.0000
vt 0.0515 0.3098 0.0000
vt 0.0253 0.2582 0.0000
vt 0.0162 0.2011 0.0000
vt 0.0253 0.1440 0.0000
vt 0.0515 0.0925 0.0000
vt 0.0924 0.0516 0.0000
vt 0.1440 0.0253 0.0000
vt 0.2011 0.0163 0.0000
vt 0.2582 0.0253 0.0000
vt 0.3097 0.0516 0.0000
vt 0.3506 0.0925 0.0000
vt 0.3769 0.1440 0.0000
vt 0.8902 0.6219 0.0000
vt 0.9648 0.6461 0.0000
vt 0.9385 0.6976 0.0000
vt 0.8751 0.6516 0.0000
vt 0.8955 0.5890 0.0000
vt 0.9738 0.5890 0.0000
vt 0.8976 0.7385 0.0000
vt 0.8516 0.6752 0.0000
vt 0.8461 0.7648 0.0000
vt 0.8219 0.6903 0.0000
vt 0.7890 0.7738 0.0000
vt 0.7890 0.6955 0.0000
vt 0.7318 0.7648 0.0000
vt 0.7560 0.6903 0.0000
vt 0.6803 0.7385 0.0000
vt 0.7263 0.6752 0.0000
vt 0.6394 0.6976 0.0000
vt 0.7028 0.6516 0.0000
vt 0.6131 0.6461 0.0000
vt 0.6877 0.6219 0.0000
vt 0.6041 0.5890 0.0000
vt 0.6824 0.5890 0.0000
vt 0.6131 0.5319 0.0000
vt 0.6877 0.5561 0.0000
vt 0.6394 0.4803 0.0000
vt 0.7028 0.5264 0.0000
vt 0.6803 0.4394 0.0000
vt 0.7263 0.5028 0.0000
vt 0.7318 0.4132 0.0000
vt 0.7560 0.4877 0.0000
vt 0.7890 0.4041 0.0000
vt 0.7890 0.4825 0.0000
vt 0.8461 0.4132 0.0000
vt 0.8219 0.4877 0.0000
vt 0.8976 0.4394 0.0000
vt 0.8516 0.5028 0.0000
vt 0.9385 0.4803 0.0000
vt 0.8751 0.5264 0.0000
vt 0.9648 0.5319 0.0000
vt 0.8902 0.5561 0.0000
vt 0.2730 0.4966 0.0000
vt 0.5639 0.4966 0.0000
vt 0.5639 0.5537 0.0000
vt 0.2730 0.5537 0.0000
vt 0.5639 0.6108 0.0000
vt 0.2730 0.6108 0.0000
vt 0.5639 0.6623 0.0000
vt 0.2730 0.6623 0.0000
vt 0.5639 0.7032 0.0000
vt 0.2730 0.7032 0.0000
vt 0.2670 0.4041 0.0000
vt 0.2670 0.6950 0.0000
vt 0.2155 0.6950 0.0000
vt 0.2155 0.4041 0.0000
vt 0.1584 0.6950 0.0000
vt 0.1584 0.4041 0.0000
vt 0.1012 0.6950 0.0000
vt 0.1012 0.4041 0.0000
vt 0.0497 0.6950 0.0000
vt 0.0497 0.4041 0.0000
vt 0.0088 0.6950 0.0000
vt 0.0088 0.4041 0.0000
vt 0.2601 0.6989 0.0000
vt 0.2601 0.9898 0.0000
vt 0.2086 0.9898 0.0000
vt 0.2086 0.6989 0.0000
vt 0.1515 0.9898 0.0000
vt 0.1515 0.6989 0.0000
vt 0.0944 0.9898 0.0000
vt 0.0944 0.6989 0.0000
vt 0.0428 0.9898 0.0000
vt 0.0428 0.6989 0.0000
vt 0.0019 0.9898 0.0000
vt 0.0019 0.6989 0.0000
vt 0.2665 0.9980 0.0000
vt 0.2665 0.7071 0.0000
vt 0.3180 0.7071 0.0000
vt 0.3180 0.9980 0.0000
vt 0.3751 0.7071 0.0000
vt 0.3751 0.9980 0.0000
vt 0.4322 0.7071 0.0000
vt 0.4322 0.9980 0.0000
vt 0.4838 0.7071 0.0000
vt 0.4838 0.9980 0.0000
vt 0.2730 0.4041 0.0000
vt 0.5639 0.4041 0.0000
vt 0.5639 0.4450 0.0000
vt 0.2730 0.4450 0.0000
vt 0.3622 0.0841 0.0000
vt 0.3905 0.1396 0.0000
vt 0.7821 0.2582 0.0000
vt 0.7957 0.2627 0.0000
vt 0.7674 0.3182 0.0000
vt 0.7559 0.3098 0.0000
vt 0.3181 0.0400 0.0000
vt 0.7234 0.3622 0.0000
vt 0.7150 0.3507 0.0000
vt 0.2626 0.0117 0.0000
vt 0.6679 0.3905 0.0000
vt 0.6634 0.3769 0.0000
vt 0.2011 0.0020 0.0000
vt 0.6063 0.4003 0.0000
vt 0.6063 0.3860 0.0000
vt 0.1395 0.0117 0.0000
vt 0.5448 0.3905 0.0000
vt 0.5492 0.3769 0.0000
vt 0.0840 0.0400 0.0000
vt 0.4893 0.3622 0.0000
vt 0.4977 0.3507 0.0000
vt 0.0400 0.0841 0.0000
vt 0.4452 0.3182 0.0000
vt 0.4568 0.3098 0.0000
vt 0.0117 0.1396 0.0000
vt 0.4169 0.2627 0.0000
vt 0.4305 0.2582 0.0000
vt 0.0019 0.2011 0.0000
vt 0.4072 0.2011 0.0000
vt 0.4215 0.2011 0.0000
vt 0.0117 0.2627 0.0000
vt 0.4169 0.1396 0.0000
vt 0.4305 0.1440 0.0000
vt 0.0400 0.3182 0.0000
vt 0.4452 0.0841 0.0000
vt 0.4568 0.0925 0.0000
vt 0.0840 0.3622 0.0000
vt 0.4893 0.0400 0.0000
vt 0.4977 0.0516 0.0000
vt 0.1395 0.3905 0.0000
vt 0.5448 0.0117 0.0000
vt 0.5492 0.0253 0.0000
vt 0.2011 0.4003 0.0000
vt 0.6063 0.0020 0.0000
vt 0.6063 0.0163 0.0000
vt 0.2626 0.3905 0.0000
vt 0.6679 0.0117 0.0000
vt 0.6634 0.0253 0.0000
vt 0.3181 0.3622 0.0000
vt 0.7234 0.0400 0.0000
vt 0.7150 0.0516 0.0000
vt 0.3622 0.3182 0.0000
vt 0.7674 0.0841 0.0000
vt 0.7559 0.0925 0.0000
vt 0.3905 0.2627 0.0000
vt 0.7957 0.1396 0.0000
vt 0.7821 0.1440 0.0000
vt 0.4002 0.2011 0.0000
vt 0.8054 0.2011 0.0000
vt 0.7912 0.2011 0.0000
vt 0.7973 0.6148 0.0000
vt 0.7890 0.6161 0.0000
vt 0.7806 0.6148 0.0000
vt 0.7730 0.6109 0.0000
vt 0.7670 0.6049 0.0000
vt 0.7631 0.5974 0.0000
vt 0.7618 0.5890 0.0000
vt 0.7631 0.5806 0.0000
vt 0.7670 0.5730 0.0000
vt 0.7730 0.5670 0.0000
vt 0.7806 0.5632 0.0000
vt 0.7890 0.5619 0.0000
vt 0.7973 0.5632 0.0000
vt 0.8049 0.5670 0.0000
vt 0.8109 0.5730 0.0000
vt 0.8148 0.5806 0.0000
vt 0.8161 0.5890 0.0000
vt 0.8148 0.5974 0.0000
vt 0.8109 0.6049 0.0000
vt 0.8049 0.6109 0.0000
vt 0.8328 0.6209 0.0000
vt 0.8208 0.6329 0.0000
vt 0.8405 0.6058 0.0000
vt 0.8057 0.6406 0.0000
vt 0.7890 0.6432 0.0000
vt 0.7722 0.6406 0.0000
vt 0.7571 0.6329 0.0000
vt 0.7451 0.6209 0.0000
vt 0.7374 0.6058 0.0000
vt 0.7347 0.5890 0.0000
vt 0.7374 0.5722 0.0000
vt 0.7451 0.5571 0.0000
vt 0.7571 0.5451 0.0000
vt 0.7722 0.5374 0.0000
vt 0.7890 0.5347 0.0000
vt 0.8057 0.5374 0.0000
vt 0.8208 0.5451 0.0000
vt 0.8328 0.5571 0.0000
vt 0.8405 0.5722 0.0000
vt 0.8432 0.5890 0.0000
# 256 texture coords

g polySurface2_weapon_bazooka_bullet1_polySurface9
usemtl default
s off
f 1/1/1 2/2/1 3/3/2 
f 3/3/2 4/4/2 1/1/1 
f 5/5/3 6/6/3 2/2/1 
f 2/2/1 1/1/1 5/5/3 
f 7/7/4 8/8/4 6/9/3 
f 6/9/3 5/10/3 7/7/4 
f 9/11/5 10/12/5 8/8/4 
f 8/8/4 7/7/4 9/11/5 
f 11/13/6 12/14/6 10/12/5 
f 10/12/5 9/11/5 11/13/6 
f 13/15/7 14/16/7 12/14/6 
f 12/14/6 11/13/6 13/15/7 
f 15/17/8 16/18/8 14/16/7 
f 14/16/7 13/15/7 15/17/8 
f 17/19/9 18/20/9 16/21/8 
f 16/21/8 15/22/8 17/19/9 
f 19/23/10 20/24/10 18/20/9 
f 18/20/9 17/19/9 19/23/10 
f 21/25/11 22/26/11 20/24/10 
f 20/24/10 19/23/10 21/25/11 
f 23/27/12 24/28/12 22/26/11 
f 22/26/11 21/25/11 23/27/12 
f 25/29/13 26/30/13 24/28/12 
f 24/28/12 23/27/12 25/29/13 
f 27/31/14 28/32/14 26/33/13 
f 26/33/13 25/34/13 27/31/14 
f 29/35/15 30/36/15 28/32/14 
f 28/32/14 27/31/14 29/35/15 
f 31/37/16 32/38/16 30/36/15 
f 30/36/15 29/35/15 31/37/16 
f 33/39/17 34/40/17 32/38/16 
f 32/38/16 31/37/16 33/39/17 
f 35/41/18 36/42/18 34/43/17 
f 34/43/17 33/44/17 35/41/18 
f 37/45/19 38/46/19 36/42/18 
f 36/42/18 35/41/18 37/45/19 
f 39/47/20 40/48/20 38/46/19 
f 38/46/19 37/45/19 39/47/20 
f 4/4/2 3/3/2 40/48/20 
f 40/48/20 39/47/20 4/4/2 
f 41/49/21 42/50/21 43/51/21 
f 43/51/21 44/52/21 45/53/22 
f 45/53/22 46/54/22 47/55/21 
f 43/51/21 45/53/22 47/55/21 
f 47/55/21 48/56/21 49/57/21 
f 49/57/21 50/58/21 51/59/21 
f 47/55/21 49/57/21 51/59/21 
f 51/59/21 52/60/21 53/61/21 
f 53/61/21 54/62/22 55/63/22 
f 51/59/21 53/61/21 55/63/22 
f 55/63/22 56/64/21 57/65/21 
f 57/65/21 58/66/21 59/67/22 
f 55/63/22 57/65/21 59/67/22 
f 51/59/21 55/63/22 59/67/22 
f 47/55/21 51/59/21 59/67/22 
f 43/51/21 47/55/21 59/67/22 
f 41/49/21 43/51/21 59/67/22 
f 60/68/21 41/49/21 59/67/22 
f 61/69/23 62/70/24 63/71/25 
f 63/71/25 64/72/23 61/69/23 
f 61/69/26 65/73/26 66/74/27 
f 66/74/27 62/70/24 61/69/26 
f 64/72/28 63/71/25 67/75/29 
f 67/75/29 68/76/28 64/72/28 
f 68/76/30 67/75/29 69/77/31 
f 69/77/31 70/78/30 68/76/30 
f 70/78/32 69/77/31 71/79/33 
f 71/79/33 72/80/32 70/78/32 
f 72/80/34 71/79/33 73/81/35 
f 73/81/35 74/82/34 72/80/34 
f 74/82/36 73/81/35 75/83/37 
f 75/83/37 76/84/36 74/82/36 
f 76/84/38 75/83/37 77/85/39 
f 77/85/39 78/86/38 76/84/38 
f 78/86/40 77/85/39 79/87/41 
f 79/87/41 80/88/40 78/86/40 
f 80/88/42 79/87/41 81/89/43 
f 81/89/43 82/90/42 80/88/42 
f 82/90/44 81/89/43 83/91/45 
f 83/91/45 84/92/44 82/90/44 
f 84/92/46 83/91/45 85/93/47 
f 85/93/47 86/94/46 84/92/46 
f 86/94/48 85/93/47 87/95/49 
f 87/95/49 88/96/48 86/94/48 
f 88/96/50 87/95/49 89/97/51 
f 89/97/51 90/98/50 88/96/50 
f 90/98/52 89/97/51 91/99/53 
f 91/99/53 92/100/52 90/98/52 
f 92/100/54 91/99/53 93/101/55 
f 93/101/55 94/102/54 92/100/54 
f 94/102/56 93/101/55 95/103/57 
f 95/103/57 96/104/56 94/102/56 
f 96/104/58 95/103/57 97/105/59 
f 97/105/59 98/106/58 96/104/58 
f 98/106/60 97/105/59 99/107/61 
f 99/107/61 100/108/60 98/106/60 
f 100/108/62 99/107/61 66/74/27 
f 66/74/27 65/73/62 100/108/62 
f 101/109/2 62/110/2 66/111/20 
f 66/111/20 102/112/20 101/109/2 
f 102/112/20 66/111/20 99/113/19 
f 99/113/19 103/114/19 102/112/20 
f 103/114/19 99/113/19 97/115/18 
f 97/115/18 104/116/18 103/114/19 
f 104/116/18 97/115/18 95/117/17 
f 95/117/17 105/118/17 104/116/18 
f 105/119/17 95/120/17 93/121/16 
f 93/121/16 106/122/16 105/119/17 
f 106/122/16 93/121/16 91/123/15 
f 91/123/15 107/124/15 106/122/16 
f 107/124/15 91/123/15 89/125/14 
f 89/125/14 108/126/14 107/124/15 
f 108/126/14 89/125/14 87/127/13 
f 87/127/13 109/128/13 108/126/14 
f 109/128/13 87/127/13 85/129/12 
f 85/129/12 110/130/12 109/128/13 
f 110/131/12 85/132/12 83/133/11 
f 83/133/11 111/134/11 110/131/12 
f 111/134/11 83/133/11 81/135/10 
f 81/135/10 112/136/10 111/134/11 
f 112/136/10 81/135/10 79/137/9 
f 79/137/9 113/138/9 112/136/10 
f 113/138/9 79/137/9 77/139/8 
f 77/139/8 114/140/8 113/138/9 
f 114/140/8 77/139/8 75/141/7 
f 75/141/7 115/142/7 114/140/8 
f 115/143/7 75/144/7 73/145/6 
f 73/145/6 116/146/6 115/143/7 
f 116/146/6 73/145/6 71/147/5 
f 71/147/5 117/148/5 116/146/6 
f 117/148/5 71/147/5 69/149/4 
f 69/149/4 118/150/4 117/148/5 
f 118/150/4 69/149/4 67/151/3 
f 67/151/3 119/152/3 118/150/4 
f 119/153/3 67/154/3 63/155/1 
f 63/155/1 120/156/1 119/153/3 
f 120/156/1 63/155/1 62/110/2 
f 62/110/2 101/109/2 120/156/1 
f 59/67/22 1/157/63 4/158/64 
f 4/158/64 60/68/21 59/67/22 
f 101/159/65 3/160/65 2/161/65 
f 2/161/65 120/162/65 101/159/65 
f 58/66/21 5/163/63 1/157/63 
f 1/157/63 59/67/22 58/66/21 
f 120/162/65 2/161/65 6/164/65 
f 6/164/65 119/165/65 120/162/65 
f 57/65/21 7/166/64 5/163/63 
f 5/163/63 58/66/21 57/65/21 
f 119/165/65 6/164/65 8/167/65 
f 8/167/65 118/168/65 119/165/65 
f 56/64/21 9/169/64 7/166/64 
f 7/166/64 57/65/21 56/64/21 
f 118/168/65 8/167/65 10/170/66 
f 10/170/66 117/171/66 118/168/65 
f 55/63/22 11/172/22 9/169/64 
f 9/169/64 56/64/21 55/63/22 
f 117/171/66 10/170/66 12/173/65 
f 12/173/65 116/174/65 117/171/66 
f 54/62/22 13/175/22 11/172/22 
f 11/172/22 55/63/22 54/62/22 
f 116/174/65 12/173/65 14/176/65 
f 14/176/65 115/177/65 116/174/65 
f 53/61/21 15/178/64 13/175/22 
f 13/175/22 54/62/22 53/61/21 
f 115/177/65 14/176/65 16/179/65 
f 16/179/65 114/180/65 115/177/65 
f 52/60/21 17/181/64 15/178/64 
f 15/178/64 53/61/21 52/60/21 
f 114/180/65 16/179/65 18/182/65 
f 18/182/65 113/183/65 114/180/65 
f 51/59/21 19/184/64 17/181/64 
f 17/181/64 52/60/21 51/59/21 
f 113/183/65 18/182/65 20/185/65 
f 20/185/65 112/186/65 113/183/65 
f 50/58/21 21/187/64 19/184/64 
f 19/184/64 51/59/21 50/58/21 
f 112/186/65 20/185/65 22/188/65 
f 22/188/65 111/189/65 112/186/65 
f 49/57/21 23/190/64 21/187/64 
f 21/187/64 50/58/21 49/57/21 
f 111/189/65 22/188/65 24/191/65 
f 24/191/65 110/192/65 111/189/65 
f 48/56/21 25/193/21 23/190/64 
f 23/190/64 49/57/21 48/56/21 
f 110/192/65 24/191/65 26/194/65 
f 26/194/65 109/195/65 110/192/65 
f 47/55/21 27/196/21 25/193/21 
f 25/193/21 48/56/21 47/55/21 
f 109/195/65 26/194/65 28/197/66 
f 28/197/66 108/198/66 109/195/65 
f 46/54/22 29/199/63 27/196/21 
f 27/196/21 47/55/21 46/54/22 
f 108/198/66 28/197/66 30/200/65 
f 30/200/65 107/201/65 108/198/66 
f 45/53/22 31/202/63 29/199/63 
f 29/199/63 46/54/22 45/53/22 
f 107/201/65 30/200/65 32/203/65 
f 32/203/65 106/204/65 107/201/65 
f 44/52/21 33/205/64 31/202/63 
f 31/202/63 45/53/22 44/52/21 
f 106/204/65 32/203/65 34/206/65 
f 34/206/65 105/207/65 106/204/65 
f 43/51/21 35/208/64 33/205/64 
f 33/205/64 44/52/21 43/51/21 
f 105/207/65 34/206/65 36/209/65 
f 36/209/65 104/210/65 105/207/65 
f 42/50/21 37/211/64 35/208/64 
f 35/208/64 43/51/21 42/50/21 
f 104/210/65 36/209/65 38/212/66 
f 38/212/66 103/213/66 104/210/65 
f 41/49/21 39/214/64 37/211/64 
f 37/211/64 42/50/21 41/49/21 
f 103/213/66 38/212/66 40/215/65 
f 40/215/65 102/216/65 103/213/66 
f 60/68/21 4/158/64 39/214/64 
f 39/214/64 41/49/21 60/68/21 
f 102/216/65 40/215/65 3/160/65 
f 3/160/65 101/159/65 102/216/65 
f 121/217/65 122/218/65 123/219/65 
f 123/219/65 124/220/65 125/221/65 
f 125/221/65 126/222/65 127/223/65 
f 123/219/65 125/221/65 127/223/65 
f 127/223/65 128/224/65 129/225/65 
f 129/225/65 130/226/65 131/227/65 
f 127/223/65 129/225/65 131/227/65 
f 131/227/65 132/228/65 133/229/65 
f 133/229/65 134/230/65 135/231/65 
f 131/227/65 133/229/65 135/231/65 
f 135/231/65 136/232/65 137/233/65 
f 137/233/65 138/234/65 139/235/65 
f 135/231/65 137/233/65 139/235/65 
f 131/227/65 135/231/65 139/235/65 
f 127/223/65 131/227/65 139/235/65 
f 123/219/65 127/223/65 139/235/65 
f 121/217/65 123/219/65 139/235/65 
f 140/236/65 121/217/65 139/235/65 
s 1
f 64/237/67 68/238/68 140/236/68 
f 140/236/68 139/235/67 64/237/67 
f 139/235/67 138/234/69 61/239/69 
f 61/239/69 64/237/67 139/235/67 
f 68/238/68 70/240/70 121/217/70 
f 121/217/70 140/236/68 68/238/68 
f 70/240/70 72/241/71 122/218/71 
f 122/218/71 121/217/70 70/240/70 
f 72/241/71 74/242/72 123/219/72 
f 123/219/72 122/218/71 72/241/71 
f 74/242/72 76/243/73 124/220/73 
f 124/220/73 123/219/72 74/242/72 
f 76/243/73 78/244/74 125/221/74 
f 125/221/74 124/220/73 76/243/73 
f 78/244/74 80/245/75 126/222/75 
f 126/222/75 125/221/74 78/244/74 
f 80/245/75 82/246/76 127/223/76 
f 127/223/76 126/222/75 80/245/75 
f 82/246/76 84/247/77 128/224/77 
f 128/224/77 127/223/76 82/246/76 
f 84/247/77 86/248/78 129/225/78 
f 129/225/78 128/224/77 84/247/77 
f 86/248/78 88/249/79 130/226/79 
f 130/226/79 129/225/78 86/248/78 
f 88/249/79 90/250/80 131/227/80 
f 131/227/80 130/226/79 88/249/79 
f 90/250/80 92/251/81 132/228/81 
f 132/228/81 131/227/80 90/250/80 
f 92/251/81 94/252/82 133/229/82 
f 133/229/82 132/228/81 92/251/81 
f 94/252/82 96/253/83 134/230/83 
f 134/230/83 133/229/82 94/252/82 
f 96/253/83 98/254/84 135/231/84 
f 135/231/84 134/230/83 96/253/83 
f 98/254/84 100/255/85 136/232/85 
f 136/232/85 135/231/84 98/254/84 
f 100/255/85 65/256/86 137/233/86 
f 137/233/86 136/232/85 100/255/85 
f 65/256/86 61/239/69 138/234/69 
f 138/234/69 137/233/86 65/256/86 
# 276 faces

